<svg width="21" height="19" viewBox="0 0 21 19" fill="none" xmlns="http://www.w3.org/2000/svg">
<path d="M2.08579 5.08579C1.71071 5.46086 1.5 5.96957 1.5 6.5V15.5C1.5 16.0304 1.71071 16.5391 2.08579 16.9142C2.46086 17.2893 2.96957 17.5 3.5 17.5H17.5C18.0304 17.5 18.5391 17.2893 18.9142 16.9142C19.2893 16.5391 19.5 16.0304 19.5 15.5V6.5C19.5 5.96957 19.2893 5.46086 18.9142 5.08579C18.5391 4.71071 18.0304 4.5 17.5 4.5H16.57C16.2408 4.50005 15.9167 4.41884 15.6264 4.26359C15.3362 4.10834 15.0887 3.88383 14.906 3.61L14.094 2.39C13.9113 2.11617 13.6638 1.89166 13.3736 1.73641C13.0833 1.58116 12.7592 1.49995 12.43 1.5H8.57C8.24082 1.49995 7.91671 1.58116 7.62643 1.73641C7.33616 1.89166 7.0887 2.11617 6.906 2.39L6.094 3.61C5.9113 3.88383 5.66384 4.10834 5.37357 4.26359C5.08329 4.41884 4.75918 4.50005 4.43 4.5H3.5C2.96957 4.5 2.46086 4.71071 2.08579 5.08579Z" stroke="#F7F9FB" stroke-width="2" stroke-linecap="round" stroke-linejoin="round"/>
<path d="M12.6213 12.6213C13.1839 12.0587 13.5 11.2956 13.5 10.5C13.5 9.70435 13.1839 8.94129 12.6213 8.37868C12.0587 7.81607 11.2956 7.5 10.5 7.5C9.70435 7.5 8.94129 7.81607 8.37868 8.37868C7.81607 8.94129 7.5 9.70435 7.5 10.5C7.5 11.2956 7.81607 12.0587 8.37868 12.6213C8.94129 13.1839 9.70435 13.5 10.5 13.5C11.2956 13.5 12.0587 13.1839 12.6213 12.6213Z" stroke="#F7F9FB" stroke-width="2" stroke-linecap="round" stroke-linejoin="round"/>
</svg>
