<svg width="18" height="18" viewBox="0 0 18 18" fill="none" xmlns="http://www.w3.org/2000/svg">
<path d="M12.0779 3.50136C12.2368 3.34241 12.4255 3.21632 12.6332 3.1303C12.8409 3.04428 13.0635 3 13.2883 3C13.513 3 13.7356 3.04428 13.9433 3.1303C14.151 3.21632 14.3397 3.34241 14.4986 3.50136C14.6576 3.66031 14.7837 3.84901 14.8697 4.05669C14.9557 4.26436 15 4.48695 15 4.71174C15 4.93653 14.9557 5.15912 14.8697 5.3668C14.7837 5.57447 14.6576 5.76317 14.4986 5.92212L6.32855 14.0922L3 15L3.90779 11.6714L12.0779 3.50136Z" stroke="white" stroke-width="1.5" stroke-linecap="round" stroke-linejoin="round"/>
</svg>
