<svg width="32" height="32" viewBox="0 0 32 32" fill="none" xmlns="http://www.w3.org/2000/svg">
<path d="M15.7748 31.4895H15.7055C7.04558 31.4895 0 24.4419 0 15.7794V15.7102C0 7.04767 7.04558 0 15.7055 0H15.7748C24.4347 0 31.4803 7.04767 31.4803 15.7102V15.7794C31.4803 24.4419 24.4347 31.4895 15.7748 31.4895ZM15.7055 1.06589C7.63271 1.06589 1.06558 7.63498 1.06558 15.7102V15.7794C1.06558 23.8546 7.63271 30.4237 15.7055 30.4237H15.7748C23.8476 30.4237 30.4147 23.8546 30.4147 15.7794V15.7102C30.4147 7.63498 23.8476 1.06589 15.7748 1.06589H15.7055Z" fill="#F0F4F8"/>
<path d="M17.8577 12.2139V15.5277H21.9559L21.307 19.9917H17.8577V30.2764C17.1661 30.3724 16.4586 30.4225 15.7404 30.4225C14.9114 30.4225 14.0973 30.3564 13.3045 30.2285V19.9917H9.5249V15.5277H13.3045V11.4731C13.3045 8.95759 15.3429 6.91748 17.8588 6.91748V6.91961C17.8662 6.91961 17.8726 6.91748 17.8801 6.91748H21.957V10.7781H19.293C18.5013 10.7781 17.8588 11.4209 17.8588 12.2128L17.8577 12.2139Z" fill="#F0F4F8"/>
</svg>
