<svg width="32" height="32" viewBox="0 0 32 32" fill="none" xmlns="http://www.w3.org/2000/svg">
<path d="M15.7748 31.4895H15.7055C7.04558 31.4895 0 24.4419 0 15.7794V15.7102C0 7.04767 7.04558 0 15.7055 0H15.7748C24.4347 0 31.4803 7.04767 31.4803 15.7102V15.7794C31.4803 24.4419 24.4347 31.4895 15.7748 31.4895ZM15.7055 1.06589C7.63271 1.06589 1.06558 7.63498 1.06558 15.7102V15.7794C1.06558 23.8546 7.63271 30.4237 15.7055 30.4237H15.7748C23.8476 30.4237 30.4147 23.8546 30.4147 15.7794V15.7102C30.4147 7.63498 23.8476 1.06589 15.7748 1.06589H15.7055Z" fill="#0F172A"/>
<path d="M17.8582 12.2139V15.5277H21.9564L21.3075 19.9917H17.8582V30.2764C17.1666 30.3724 16.4591 30.4225 15.7409 30.4225C14.9119 30.4225 14.0978 30.3564 13.305 30.2285V19.9917H9.52539V15.5277H13.305V11.4731C13.305 8.95759 15.3434 6.91748 17.8593 6.91748V6.91961C17.8667 6.91961 17.8731 6.91748 17.8806 6.91748H21.9575V10.7781H19.2935C18.5018 10.7781 17.8593 11.4209 17.8593 12.2128L17.8582 12.2139Z" fill="#0F172A"/>
</svg>
