<svg width="18" height="18" viewBox="0 0 18 18" fill="none" xmlns="http://www.w3.org/2000/svg">
<path d="M13.1011 0V1.39963H15.5946L13.2327 3.78321C12.3885 3.14566 11.3596 2.80027 10.3017 2.79927C8.993 2.79927 7.77107 3.31713 6.84588 4.24299C6.38856 4.69478 6.02548 5.23286 5.77769 5.82603C5.52991 6.41919 5.40235 7.05565 5.40242 7.69849C5.40248 8.34132 5.53017 8.97775 5.77807 9.57087C6.02598 10.164 6.38916 10.702 6.84658 11.1537C7.45544 11.7625 8.18048 12.1999 8.9895 12.4218C9.06928 12.3609 9.15886 12.2972 9.23025 12.2258C9.52359 11.9275 9.73437 11.558 9.84191 11.1537C9.07991 11.0599 8.37141 10.7132 7.82986 10.169C7.16921 9.50912 6.80249 8.63295 6.80249 7.69799C6.80249 6.76303 7.16991 5.88826 7.83126 5.22763C8.49051 4.56491 9.36672 4.1989 10.3017 4.1989C11.2367 4.1989 12.1122 4.56631 12.7722 5.22763C13.0986 5.55085 13.3576 5.93564 13.5342 6.35969C13.7108 6.78375 13.8014 7.23864 13.8009 7.69799C13.8009 8.30333 13.6295 8.86668 13.3418 9.38175C13.409 9.74286 13.451 10.1222 13.451 10.4973C13.451 10.8467 13.4219 11.1896 13.3635 11.526C13.5035 11.4119 13.6281 11.2825 13.7575 11.1537C14.6827 10.2271 15.2006 9.00665 15.2006 7.69799C15.2006 6.62727 14.8479 5.60974 14.2166 4.76716L16.6003 2.40597V4.89872H18V0H13.1011ZM8.81454 5.77349C8.73476 5.83438 8.64518 5.89806 8.5738 5.96944C8.27146 6.27316 8.07411 6.64127 7.96213 7.04226C8.72496 7.14023 9.42131 7.47335 9.97418 8.0262C10.6355 8.68613 11.003 9.5623 11.003 10.4966C11.003 11.4308 10.6355 12.3063 9.97418 12.9669C9.31353 13.6303 8.43733 13.9963 7.50233 13.9963C6.56734 13.9963 5.69184 13.6289 5.03188 12.9676C4.70515 12.6446 4.44593 12.2599 4.26932 11.8358C4.0927 11.4117 4.00221 10.9567 4.00311 10.4973C4.00311 9.89192 4.17457 9.32856 4.46221 8.8135C4.39274 8.44565 4.3562 8.07233 4.35303 7.69799C4.35303 7.34901 4.38219 7.0061 4.44051 6.66926C4.30054 6.78333 4.17667 6.91279 4.0465 7.04226C3.12271 7.96672 2.60342 9.1886 2.60342 10.4973C2.60342 11.568 2.95614 12.5855 3.5874 13.4281L2.40746 14.6087L1.00778 13.2091L0 14.193L1.39969 15.5926L0 16.9923L1.00778 18L2.40746 16.6004L3.80715 18L4.79044 16.9923L3.39075 15.5926L4.57208 14.4127C5.41546 15.0513 6.44449 15.3966 7.50233 15.396C8.81104 15.396 10.033 14.8781 10.9582 13.9523C11.8834 13.0278 12.4012 11.8059 12.4012 10.4973C12.4012 9.1886 11.8834 7.96812 10.9575 7.04156C10.3486 6.43272 9.62356 5.99533 8.81454 5.77349Z" fill="#0F172A"/>
</svg>
