<svg width="32" height="32" viewBox="0 0 32 32" fill="none" xmlns="http://www.w3.org/2000/svg">
<path d="M17.8667 2.6665H8.00004C7.2928 2.6665 6.61452 2.94746 6.11442 3.44755C5.61433 3.94765 5.33337 4.62593 5.33337 5.33317V26.6665C5.33337 27.3737 5.61433 28.052 6.11442 28.5521C6.61452 29.0522 7.2928 29.3332 8.00004 29.3332H24C24.7073 29.3332 25.3856 29.0522 25.8857 28.5521C26.3858 28.052 26.6667 27.3737 26.6667 26.6665V16.7998" stroke="#F7F9FB" stroke-width="2.66667" stroke-linecap="round" stroke-linejoin="round"/>
<path d="M2.66663 8H7.99996" stroke="#F7F9FB" stroke-width="2.66667" stroke-linecap="round" stroke-linejoin="round"/>
<path d="M2.66663 13.3335H7.99996" stroke="#F7F9FB" stroke-width="2.66667" stroke-linecap="round" stroke-linejoin="round"/>
<path d="M2.66663 18.6665H7.99996" stroke="#F7F9FB" stroke-width="2.66667" stroke-linecap="round" stroke-linejoin="round"/>
<path d="M2.66663 24H7.99996" stroke="#F7F9FB" stroke-width="2.66667" stroke-linecap="round" stroke-linejoin="round"/>
<path d="M28.504 7.50137C29.0351 6.97023 29.3335 6.24985 29.3335 5.4987C29.3335 4.74756 29.0351 4.02718 28.504 3.49604C27.9729 2.9649 27.2525 2.6665 26.5013 2.6665C25.7502 2.6665 25.0298 2.9649 24.4987 3.49604L17.8187 10.1787C17.5017 10.4955 17.2696 10.8871 17.144 11.3174L16.028 15.144C15.9945 15.2588 15.9925 15.3804 16.0222 15.4962C16.0519 15.6119 16.1121 15.7176 16.1966 15.8021C16.2811 15.8866 16.3868 15.9469 16.5026 15.9765C16.6183 16.0062 16.7399 16.0042 16.8547 15.9707L20.6813 14.8547C21.1116 14.7291 21.5032 14.497 21.82 14.18L28.504 7.50137Z" stroke="#F7F9FB" stroke-width="2.66667" stroke-linecap="round" stroke-linejoin="round"/>
</svg>
