<svg width="32" height="32" viewBox="0 0 32 32" fill="none" xmlns="http://www.w3.org/2000/svg">
<path d="M16.2552 31.4895H16.186C7.52605 31.4895 0.480469 24.4419 0.480469 15.7794V15.7101C0.480469 7.04765 7.52605 0 16.186 0H16.2552C24.9152 0 31.9608 7.04765 31.9608 15.7101V15.7794C31.9608 24.4419 24.9152 31.4895 16.2552 31.4895ZM16.186 1.06589C8.11318 1.06589 1.54604 7.63495 1.54604 15.7101V15.7794C1.54604 23.8546 8.11318 30.4237 16.186 30.4237H16.2552C24.328 30.4237 30.8952 23.8546 30.8952 15.7794V15.7101C30.8952 7.63495 24.328 1.06589 16.2552 1.06589H16.186Z" fill="#F0F4F8"/>
<path d="M20.9266 6.72266H11.5155C8.91546 6.72266 6.80029 8.83845 6.80029 11.4392V20.0516C6.80029 22.6523 8.91546 24.7681 11.5155 24.7681H20.9266C23.5266 24.7681 25.6418 22.6523 25.6418 20.0516V11.4392C25.6418 8.83845 23.5266 6.72266 20.9266 6.72266ZM8.46366 11.4392C8.46366 9.75618 9.83292 8.38649 11.5155 8.38649H20.9266C22.6092 8.38649 23.9784 9.75618 23.9784 11.4392V20.0516C23.9784 21.7346 22.6092 23.1043 20.9266 23.1043H11.5155C9.83292 23.1043 8.46366 21.7346 8.46366 20.0516V11.4392Z" fill="#F0F4F8"/>
<path d="M16.2209 20.1313C18.6387 20.1313 20.6068 18.1637 20.6068 15.7441C20.6068 13.3246 18.6397 11.3569 16.2209 11.3569C13.802 11.3569 11.835 13.3246 11.835 15.7441C11.835 18.1637 13.802 20.1313 16.2209 20.1313ZM16.2209 13.0218C17.7223 13.0218 18.9434 14.2434 18.9434 15.7452C18.9434 17.247 17.7223 18.4685 16.2209 18.4685C14.7195 18.4685 13.4983 17.247 13.4983 15.7452C13.4983 14.2434 14.7195 13.0218 16.2209 13.0218Z" fill="#F0F4F8"/>
<path d="M21.0128 12.0658C21.6638 12.0658 22.1945 11.5361 22.1945 10.8837C22.1945 10.2314 21.6649 9.70166 21.0128 9.70166C20.3606 9.70166 19.8311 10.2314 19.8311 10.8837C19.8311 11.5361 20.3606 12.0658 21.0128 12.0658Z" fill="#F0F4F8"/>
</svg>
