<svg width="40" height="40" viewBox="0 0 40 40" fill="none" xmlns="http://www.w3.org/2000/svg">
<path d="M16.105 28.3333H23.8933M20 5V6.66667M30.6067 9.39333L29.4283 10.5717M35 20H33.3333M6.66667 20H5M10.5717 10.5717L9.39333 9.39333M14.1067 25.8933C12.9414 24.7278 12.148 23.2429 11.8266 21.6265C11.5053 20.01 11.6704 18.3346 12.3012 16.812C12.932 15.2894 14.0001 13.9881 15.3705 13.0725C16.7408 12.1569 18.3519 11.6682 20 11.6682C21.6481 11.6682 23.2592 12.1569 24.6295 13.0725C25.9999 13.9881 27.068 15.2894 27.6988 16.812C28.3296 18.3346 28.4947 20.01 28.1734 21.6265C27.852 23.2429 27.0585 24.7278 25.8933 25.8933L24.98 26.805C24.4578 27.3272 24.0437 27.9472 23.7611 28.6296C23.4786 29.3119 23.3332 30.0432 23.3333 30.7817V31.6667C23.3333 32.5507 22.9821 33.3986 22.357 34.0237C21.7319 34.6488 20.8841 35 20 35C19.1159 35 18.2681 34.6488 17.643 34.0237C17.0179 33.3986 16.6667 32.5507 16.6667 31.6667V30.7817C16.6667 29.29 16.0733 27.8583 15.02 26.805L14.1067 25.8933Z" stroke="#0F172A" stroke-width="3.33333" stroke-linecap="round" stroke-linejoin="round"/>
</svg>
