<svg width="54" height="50" viewBox="0 0 54 50" fill="none" xmlns="http://www.w3.org/2000/svg">
<path d="M23.652 48.104C21.4902 47.8067 20.7373 46.9755 19.8662 44.8113C6.47057 47.8949 13.1059 37.4027 9.86092 38.7746C6.61595 40.1466 3.10056 29.1708 9.86092 28.622M9.86092 28.622C10.9617 31.8374 11.6635 33.1719 13.3763 33.0123M9.86092 28.622C0.126025 30.2684 0.126016 19.0182 6.07513 18.7438C3.71623 14.1484 5.5343 9.96324 9.32009 10.512M13.3763 33.0123C14.2 31.0739 15.069 30.6204 17.4325 31.0916M13.3763 33.0123C12.5651 34.3843 12.5314 35.6146 13.9171 36.5795M9.86092 28.8964C9.59051 26.1525 9.60474 25.3278 12.0242 24.5061M9.32009 10.512C9.73872 10.5998 13.9439 12.003 12.5651 13.256M9.32009 10.512C8.77927 4.74975 13.3763 1.18262 18.2438 3.37778M12.5651 13.256C11.1862 14.509 11.213 15.1767 12.0242 15.9999M12.5651 13.256L14.7284 11.0608M18.2438 3.37778C17.1852 6.2046 17.2189 7.55768 18.7846 9.41445M18.2438 3.37778C22.3 -0.738138 27.7082 1.73141 27.1674 7.76808V19.2926M27.1674 19.2926C24.5043 14.2771 22.6454 13.1535 18.5142 14.9023C16.1432 16.1254 15.1761 17.0425 15.2692 19.8414C15.3461 25.4305 17.5989 27.6776 24.4633 30.5428M27.1674 19.2926C29.4132 15.3595 30.6549 14.2756 32.8461 14.0792C37.3943 13.866 38.8023 15.3638 39.0656 21.2134C38.4475 24.4863 34.4377 28.0673 27.1674 32.1892C24.2726 33.6368 23.2875 34.7167 22.0296 36.8539C20.8812 38.5387 20.983 39.572 22.0296 41.5186C26.5698 48.0179 29.4207 49.466 35.5503 44.5369C42.8959 46.7094 44.4199 45.5312 44.7443 38.7746C47.2243 38.665 48.5275 38.5091 49.071 36.3051C49.562 33.5004 49.3752 31.8423 48.5301 30.7273M30.4124 43.9881C33.905 40.1995 33.672 38.0335 30.142 34.1099M40.4177 33.5611C43.5103 31.4045 44.5162 29.8321 44.314 28.1585M40.4177 33.5611C39.5258 31.212 38.6331 31.0257 36.9023 31.0916M40.4177 33.5611C40.9181 34.847 40.9751 35.568 40.4177 36.8539M42.581 24.5061C43.5178 25.9001 44.1802 27.0515 44.314 28.1585M44.314 28.1585C44.4133 28.4468 44.4957 28.5671 44.7443 28.622C46.5145 29.1773 47.781 29.7389 48.5301 30.7273M48.5301 30.7273C53.3976 26.9757 53.3976 20.939 48.5301 18.7439C50.809 13.8682 47.9893 9.41445 45.826 10.512L45.1049 11.0608M42.581 12.9816C43.26 14.4681 43.343 15.2659 42.3106 16.5487M42.581 12.9816C41.4691 11.1832 40.8204 10.7084 39.6065 11.0608M42.581 12.9816L45.1049 11.0608M45.1049 11.0608C46.0964 4.47536 39.6065 0.908231 36.3615 3.37778M36.3615 3.37778C38.0073 5.81487 38.1355 7.09659 36.0911 9.14006M36.3615 3.37778C34.739 1.18263 31.2753 0.735851 29.0603 3.37778" stroke="#2563EA" stroke-width="2.56024"/>
<path d="M23.652 48.104C21.4902 47.8067 20.7373 46.9755 19.8662 44.8113C6.47057 47.8949 13.1059 37.4027 9.86092 38.7746C6.61595 40.1466 3.10056 29.1708 9.86092 28.622M9.86092 28.622C10.9617 31.8374 11.6635 33.1719 13.3763 33.0123M9.86092 28.622C0.126025 30.2684 0.126016 19.0182 6.07513 18.7438C3.71623 14.1484 5.5343 9.96324 9.32009 10.512M13.3763 33.0123C14.2 31.0739 15.069 30.6204 17.4325 31.0916M13.3763 33.0123C12.5651 34.3843 12.5314 35.6146 13.9171 36.5795M9.86092 28.8964C9.59051 26.1525 9.60474 25.3278 12.0242 24.5061M9.32009 10.512C9.73872 10.5998 13.9439 12.003 12.5651 13.256M9.32009 10.512C8.77927 4.74975 13.3763 1.18262 18.2438 3.37778M12.5651 13.256C11.1862 14.509 11.213 15.1767 12.0242 15.9999M12.5651 13.256L14.7284 11.0608M18.2438 3.37778C17.1852 6.2046 17.2189 7.55768 18.7846 9.41445M18.2438 3.37778C22.3 -0.738138 27.7082 1.73141 27.1674 7.76808V19.2926M27.1674 19.2926C24.5043 14.2771 22.6454 13.1535 18.5142 14.9023C16.1432 16.1254 15.1761 17.0425 15.2692 19.8414C15.3461 25.4305 17.5989 27.6776 24.4633 30.5428M27.1674 19.2926C29.4132 15.3595 30.6549 14.2756 32.8461 14.0792C37.3943 13.866 38.8023 15.3638 39.0656 21.2134C38.4475 24.4863 34.4377 28.0673 27.1674 32.1892C24.2726 33.6368 23.2875 34.7167 22.0296 36.8539C20.8812 38.5387 20.983 39.572 22.0296 41.5186C26.5698 48.0179 29.4207 49.466 35.5503 44.5369C42.8959 46.7094 44.4199 45.5312 44.7443 38.7746C47.2243 38.665 48.5275 38.5091 49.071 36.3051C49.562 33.5004 49.3752 31.8423 48.5301 30.7273M30.4124 43.9881C33.905 40.1995 33.672 38.0335 30.142 34.1099M40.4177 33.5611C43.5103 31.4045 44.5162 29.8321 44.314 28.1585M40.4177 33.5611C39.5258 31.212 38.6331 31.0257 36.9023 31.0916M40.4177 33.5611C40.9181 34.847 40.9751 35.568 40.4177 36.8539M42.581 24.5061C43.5178 25.9001 44.1802 27.0515 44.314 28.1585M44.314 28.1585C44.4133 28.4468 44.4957 28.5671 44.7443 28.622C46.5145 29.1773 47.781 29.7389 48.5301 30.7273M48.5301 30.7273C53.3976 26.9757 53.3976 20.939 48.5301 18.7439C50.809 13.8682 47.9893 9.41445 45.826 10.512L45.1049 11.0608M42.581 12.9816C43.26 14.4681 43.343 15.2659 42.3106 16.5487M42.581 12.9816C41.4691 11.1832 40.8204 10.7084 39.6065 11.0608M42.581 12.9816L45.1049 11.0608M45.1049 11.0608C46.0964 4.47536 39.6065 0.908231 36.3615 3.37778M36.3615 3.37778C38.0073 5.81487 38.1355 7.09659 36.0911 9.14006M36.3615 3.37778C34.739 1.18263 31.2753 0.735851 29.0603 3.37778" stroke="black" stroke-opacity="0.2" stroke-width="2.56024"/>
</svg>
