<svg width="51" height="48" viewBox="0 0 51 48" fill="none" xmlns="http://www.w3.org/2000/svg">
<path d="M22.1426 46.5C20.0316 46.2139 19.2965 45.414 18.4459 43.3312C5.36538 46.2987 11.8446 36.2013 8.67596 37.5216C5.50734 38.842 2.07467 28.2791 8.67596 27.751M8.67596 27.751C9.75083 30.8454 10.4361 32.1297 12.1086 31.9761M8.67596 27.751C-0.829882 29.3354 -0.829891 18.5086 4.97924 18.2445C2.67585 13.8219 4.45114 9.79424 8.14786 10.3224M12.1086 31.9761C12.913 30.1106 13.7615 29.6742 16.0694 30.1276M12.1086 31.9761C11.3165 33.2965 11.2836 34.4804 12.6367 35.409M8.67596 28.0151C8.41191 25.3744 8.4258 24.5807 10.7884 23.79M8.14786 10.3224C8.55663 10.4068 12.6629 11.7572 11.3165 12.9631M8.14786 10.3224C7.61975 4.77691 12.1086 1.34399 16.8616 3.45656M11.3165 12.9631C9.97008 14.1689 9.99622 14.8116 10.7884 15.6038M11.3165 12.9631L13.4289 10.8505M16.8616 3.45656C15.8279 6.17703 15.8608 7.47919 17.3897 9.2661M16.8616 3.45656C20.8223 -0.504497 26.1034 1.87214 25.5752 7.68168V18.7726M25.5752 18.7726C22.9748 13.9458 21.1596 12.8645 17.1256 14.5475C14.8104 15.7245 13.866 16.6072 13.957 19.3008C14.0321 24.6796 16.2318 26.8421 22.9347 29.5995M25.5752 18.7726C27.7682 14.9875 28.9807 13.9443 31.1203 13.7553C35.5615 13.5502 36.9364 14.9916 37.1935 20.6211C36.5899 23.7709 32.6745 27.2171 25.5752 31.1839C22.7486 32.577 21.7866 33.6164 20.5583 35.6731C19.4369 37.2946 19.5364 38.289 20.5583 40.1623C24.9917 46.4171 27.7755 47.8107 33.7608 43.0671C40.9336 45.1578 42.4218 44.024 42.7386 37.5216C45.1602 37.4161 46.4327 37.2661 46.9634 35.145C47.4429 32.4458 47.2605 30.8501 46.4353 29.7771M28.7439 42.539C32.1543 38.8929 31.9268 36.8084 28.4798 33.0324M38.5138 32.5043C41.5336 30.4288 42.5158 28.9156 42.3184 27.305M38.5138 32.5043C37.6428 30.2435 36.7712 30.0643 35.0811 30.1276M38.5138 32.5043C39.0023 33.7418 39.058 34.4356 38.5138 35.6731M40.6262 23.79C41.5409 25.1315 42.1878 26.2395 42.3184 27.305M42.3184 27.305C42.4153 27.5823 42.4958 27.6982 42.7386 27.751C44.4671 28.2854 45.7038 28.8259 46.4353 29.7771M46.4353 29.7771C51.1882 26.1666 51.1882 20.3571 46.4353 18.2445C48.6606 13.5523 45.9072 9.2661 43.7948 10.3224L43.0907 10.8505M40.6262 12.699C41.2892 14.1296 41.3703 14.8974 40.3621 16.1319M40.6262 12.699C39.5405 10.9683 38.9069 10.5114 37.7216 10.8505M40.6262 12.699L43.0907 10.8505M43.0907 10.8505C44.0588 4.51284 37.7216 1.07993 34.553 3.45656M34.553 3.45656C36.1601 5.80195 36.2852 7.03545 34.2889 9.00203M34.553 3.45656C32.9687 1.344 29.5865 0.914033 27.4236 3.45656" stroke="#2563EA" stroke-width="2"/>
<path d="M22.1426 46.5C20.0316 46.2139 19.2965 45.414 18.4459 43.3312C5.36538 46.2987 11.8446 36.2013 8.67596 37.5216C5.50734 38.842 2.07467 28.2791 8.67596 27.751M8.67596 27.751C9.75083 30.8454 10.4361 32.1297 12.1086 31.9761M8.67596 27.751C-0.829882 29.3354 -0.829891 18.5086 4.97924 18.2445C2.67585 13.8219 4.45114 9.79424 8.14786 10.3224M12.1086 31.9761C12.913 30.1106 13.7615 29.6742 16.0694 30.1276M12.1086 31.9761C11.3165 33.2965 11.2836 34.4804 12.6367 35.409M8.67596 28.0151C8.41191 25.3744 8.4258 24.5807 10.7884 23.79M8.14786 10.3224C8.55663 10.4068 12.6629 11.7572 11.3165 12.9631M8.14786 10.3224C7.61975 4.77691 12.1086 1.34399 16.8616 3.45656M11.3165 12.9631C9.97008 14.1689 9.99622 14.8116 10.7884 15.6038M11.3165 12.9631L13.4289 10.8505M16.8616 3.45656C15.8279 6.17703 15.8608 7.47919 17.3897 9.2661M16.8616 3.45656C20.8223 -0.504497 26.1034 1.87214 25.5752 7.68168V18.7726M25.5752 18.7726C22.9748 13.9458 21.1596 12.8645 17.1256 14.5475C14.8104 15.7245 13.866 16.6072 13.957 19.3008C14.0321 24.6796 16.2318 26.8421 22.9347 29.5995M25.5752 18.7726C27.7682 14.9875 28.9807 13.9443 31.1203 13.7553C35.5615 13.5502 36.9364 14.9916 37.1935 20.6211C36.5899 23.7709 32.6745 27.2171 25.5752 31.1839C22.7486 32.577 21.7866 33.6164 20.5583 35.6731C19.4369 37.2946 19.5364 38.289 20.5583 40.1623C24.9917 46.4171 27.7755 47.8107 33.7608 43.0671C40.9336 45.1578 42.4218 44.024 42.7386 37.5216C45.1602 37.4161 46.4327 37.2661 46.9634 35.145C47.4429 32.4458 47.2605 30.8501 46.4353 29.7771M28.7439 42.539C32.1543 38.8929 31.9268 36.8084 28.4798 33.0324M38.5138 32.5043C41.5336 30.4288 42.5158 28.9156 42.3184 27.305M38.5138 32.5043C37.6428 30.2435 36.7712 30.0643 35.0811 30.1276M38.5138 32.5043C39.0023 33.7418 39.058 34.4356 38.5138 35.6731M40.6262 23.79C41.5409 25.1315 42.1878 26.2395 42.3184 27.305M42.3184 27.305C42.4153 27.5823 42.4958 27.6982 42.7386 27.751C44.4671 28.2854 45.7038 28.8259 46.4353 29.7771M46.4353 29.7771C51.1882 26.1666 51.1882 20.3571 46.4353 18.2445C48.6606 13.5523 45.9072 9.2661 43.7948 10.3224L43.0907 10.8505M40.6262 12.699C41.2892 14.1296 41.3703 14.8974 40.3621 16.1319M40.6262 12.699C39.5405 10.9683 38.9069 10.5114 37.7216 10.8505M40.6262 12.699L43.0907 10.8505M43.0907 10.8505C44.0588 4.51284 37.7216 1.07993 34.553 3.45656M34.553 3.45656C36.1601 5.80195 36.2852 7.03545 34.2889 9.00203M34.553 3.45656C32.9687 1.344 29.5865 0.914033 27.4236 3.45656" stroke="black" stroke-opacity="0.2" stroke-width="2"/>
</svg>
