<svg width="54" height="51" viewBox="0 0 54 51" fill="none" xmlns="http://www.w3.org/2000/svg">
<path d="M9.18512 29.5478C9.39008 29.5053 9.60641 29.4738 9.83452 29.4543C9.8433 29.4536 9.8521 29.4528 9.86092 29.4521C9.85218 29.4536 9.84345 29.4551 9.83473 29.4565C9.61315 29.4935 9.39663 29.5239 9.18512 29.5478C0.129366 30.5714 0.26701 19.8418 6.07513 19.5739C3.71623 14.9784 5.5343 10.7933 9.32009 11.3421C9.72803 11.4276 13.7316 12.7622 12.6599 13.9898C12.6318 14.022 12.6003 14.0541 12.5651 14.086L12.6599 13.9898C13.7316 12.7622 9.72803 11.4276 9.32009 11.3421C5.5343 10.7933 3.71623 14.9784 6.07513 19.5739C0.26701 19.8418 0.129366 30.5714 9.18512 29.5478Z" fill="#051885"/>
<path d="M23.652 48.9341C21.4902 48.6368 20.7373 47.8056 19.8662 45.6414C6.47057 48.725 13.1059 38.2327 9.86092 39.6047C6.61595 40.9767 3.10056 30.0009 9.86092 29.4521M9.86092 29.4521C10.9617 32.6675 11.6635 34.002 13.3763 33.8424M9.86092 29.4521C0.126025 31.0985 0.126016 19.8483 6.07513 19.5739C3.71623 14.9784 5.5343 10.7933 9.32009 11.3421M13.3763 33.8424C14.2 31.904 15.069 31.4505 17.4325 31.9217M13.3763 33.8424C12.5651 35.2144 12.5314 36.4446 13.9171 37.4095M9.86092 29.7265C9.59051 26.9826 9.60474 26.1579 12.0242 25.3362M9.32009 11.3421C9.73872 11.4299 13.9439 12.833 12.5651 14.086M9.32009 11.3421C8.77927 5.57983 13.3763 2.0127 18.2438 4.20785M12.5651 14.086C11.1862 15.339 11.213 16.0068 12.0242 16.83M12.5651 14.086L14.7284 11.8909M18.2438 4.20785C17.1852 7.03468 17.2189 8.38776 18.7846 10.2445M18.2438 4.20785C22.3 0.09194 27.7082 2.56149 27.1674 8.59816V20.1227M27.1674 20.1227C24.5043 15.1072 22.6454 13.9836 18.5142 15.7324C16.1432 16.9554 15.1761 17.8726 15.2692 20.6715C15.3461 26.2606 17.5989 28.5077 24.4633 31.3729M27.1674 20.1227C29.4132 16.1896 30.6549 15.1057 32.8461 14.9092C37.3943 14.6961 38.8023 16.1939 39.0656 22.0435C38.4475 25.3164 34.4377 28.8974 27.1674 33.0193C24.2726 34.4668 23.2875 35.5468 22.0296 37.684C20.8812 39.3688 20.983 40.4021 22.0296 42.3487C26.5698 48.848 29.4207 50.2961 35.5503 45.367C42.8959 47.5394 44.4199 46.3613 44.7443 39.6047C47.2243 39.495 48.5275 39.3392 49.071 37.1352C49.562 34.3305 49.3752 32.6724 48.5301 31.5574M30.4124 44.8182C33.905 41.0296 33.672 38.8636 30.142 34.94M40.4177 34.3912C43.5103 32.2346 44.5162 30.6622 44.314 28.9886M40.4177 34.3912C39.5258 32.042 38.6331 31.8558 36.9023 31.9217M40.4177 34.3912C40.9181 35.6771 40.9751 36.3981 40.4177 37.684M42.581 25.3362C43.5178 26.7302 44.1802 27.8815 44.314 28.9886M44.314 28.9886C44.4133 29.2768 44.4957 29.3972 44.7443 29.4521C46.5145 30.0074 47.781 30.569 48.5301 31.5574M48.5301 31.5574C53.3976 27.8058 53.3976 21.7691 48.5301 19.5739C50.809 14.6983 47.9893 10.2445 45.826 11.3421L45.1049 11.8909M42.581 13.8117C43.26 15.2982 43.343 16.096 42.3106 17.3788M42.581 13.8117C41.4691 12.0133 40.8204 11.5385 39.6065 11.8909M42.581 13.8117L45.1049 11.8909M45.1049 11.8909C46.0964 5.30543 39.6065 1.73831 36.3615 4.20786M36.3615 4.20786C38.0073 6.64495 38.1355 7.92666 36.0911 9.97014M36.3615 4.20786C34.739 2.0127 31.2753 1.56593 29.0603 4.20786" stroke="#0F172A" stroke-width="2.56024"/>
</svg>
