<svg width="52" height="48" viewBox="0 0 52 48" fill="none" xmlns="http://www.w3.org/2000/svg">
<path d="M22.6426 46.5C20.5316 46.2139 19.7965 45.414 18.9459 43.3312C5.86538 46.2987 12.3446 36.2013 9.17596 37.5216C6.00734 38.842 2.57467 28.2791 9.17596 27.751M9.17596 27.751C10.2508 30.8454 10.9361 32.1297 12.6086 31.9761M9.17596 27.751C-0.329882 29.3354 -0.329891 18.5086 5.47924 18.2445C3.17585 13.8219 4.95114 9.79424 8.64786 10.3224M12.6086 31.9761C13.413 30.1106 14.2615 29.6742 16.5694 30.1276M12.6086 31.9761C11.8165 33.2965 11.7836 34.4804 13.1367 35.409M9.17596 28.0151C8.91191 25.3744 8.9258 24.5807 11.2884 23.79M8.64786 10.3224C9.05663 10.4068 13.1629 11.7572 11.8165 12.9631M8.64786 10.3224C8.11975 4.77691 12.6086 1.34399 17.3616 3.45656M11.8165 12.9631C10.4701 14.1689 10.4962 14.8116 11.2884 15.6038M11.8165 12.9631L13.9289 10.8505M17.3616 3.45656C16.3279 6.17703 16.3608 7.47919 17.8897 9.2661M17.3616 3.45656C21.3223 -0.504497 26.6034 1.87214 26.0752 7.68168V18.7726M26.0752 18.7726C23.4748 13.9458 21.6596 12.8645 17.6256 14.5475C15.3104 15.7245 14.366 16.6072 14.457 19.3008C14.5321 24.6796 16.7318 26.8421 23.4347 29.5995M26.0752 18.7726C28.2682 14.9875 29.4807 13.9443 31.6203 13.7553C36.0615 13.5502 37.4364 14.9916 37.6935 20.6211C37.0899 23.7709 33.1745 27.2171 26.0752 31.1839C23.2486 32.577 22.2866 33.6164 21.0583 35.6731C19.9369 37.2946 20.0364 38.289 21.0583 40.1623C25.4917 46.4171 28.2755 47.8107 34.2608 43.0671C41.4336 45.1578 42.9218 44.024 43.2386 37.5216C45.6602 37.4161 46.9327 37.2661 47.4634 35.145C47.9429 32.4458 47.7605 30.8501 46.9353 29.7771M29.2439 42.539C32.6543 38.8929 32.4268 36.8084 28.9798 33.0324M39.0138 32.5043C42.0336 30.4288 43.0158 28.9156 42.8184 27.305M39.0138 32.5043C38.1428 30.2435 37.2712 30.0643 35.5811 30.1276M39.0138 32.5043C39.5023 33.7418 39.558 34.4356 39.0138 35.6731M41.1262 23.79C42.0409 25.1315 42.6878 26.2395 42.8184 27.305M42.8184 27.305C42.9153 27.5823 42.9958 27.6982 43.2386 27.751C44.9671 28.2854 46.2038 28.8259 46.9353 29.7771M46.9353 29.7771C51.6882 26.1666 51.6882 20.3571 46.9353 18.2445C49.1606 13.5523 46.4072 9.2661 44.2948 10.3224L43.5907 10.8505M41.1262 12.699C41.7892 14.1296 41.8703 14.8974 40.8621 16.1319M41.1262 12.699C40.0405 10.9683 39.4069 10.5114 38.2216 10.8505M41.1262 12.699L43.5907 10.8505M43.5907 10.8505C44.5588 4.51284 38.2216 1.07993 35.053 3.45656M35.053 3.45656C36.6601 5.80195 36.7852 7.03545 34.7889 9.00203M35.053 3.45656C33.4687 1.344 30.0865 0.914033 27.9236 3.45656" stroke="#164E63" stroke-width="2"/>
</svg>
