<svg width="71" height="66" viewBox="0 0 71 66" fill="none" xmlns="http://www.w3.org/2000/svg">
<path d="M11.7588 38.2949C12.0305 38.2385 12.3173 38.1968 12.6198 38.171C12.6314 38.17 12.6431 38.169 12.6548 38.1681C12.6432 38.17 12.6316 38.172 12.6201 38.1739C12.3263 38.223 12.0392 38.2632 11.7588 38.2949C-0.248635 39.6521 -0.0661509 25.4254 7.63506 25.0702C4.50731 18.9768 6.91795 13.4276 11.9377 14.1553C12.4786 14.2687 17.7871 16.0383 16.3661 17.666C16.3289 17.7086 16.287 17.7512 16.2403 17.7936L16.3661 17.666C17.7871 16.0383 12.4786 14.2687 11.9377 14.1553C6.91795 13.4276 4.50731 18.9768 7.63506 25.0702C-0.0661509 25.4254 -0.248635 39.6521 11.7588 38.2949Z" fill="#0F172A"/>
<path d="M30.941 64C28.0745 63.6057 27.0763 62.5037 25.9212 59.634C8.15939 63.7227 16.9574 49.8106 12.6548 51.6298C8.35216 53.4489 3.69097 38.8957 12.6548 38.1681M12.6548 38.1681C14.1144 42.4314 15.0449 44.2009 17.316 43.9893M12.6548 38.1681C-0.253088 40.351 -0.2531 25.434 7.63506 25.0702C4.50731 18.9768 6.91795 13.4276 11.9377 14.1553M17.316 43.9893C18.4082 41.4191 19.5603 40.8178 22.6943 41.4425M17.316 43.9893C16.2403 45.8085 16.1957 47.4397 18.0331 48.7191M12.6548 38.5319C12.2962 34.8936 12.3151 33.8001 15.5232 32.7106M11.9377 14.1553C12.4928 14.2717 18.0686 16.1322 16.2403 17.7936M11.9377 14.1553C11.2206 6.51485 17.316 1.78506 23.7699 4.6957M16.2403 17.7936C14.4121 19.455 14.4476 20.3404 15.5232 21.4319M16.2403 17.7936L19.1087 14.8829M23.7699 4.6957C22.3663 8.4439 22.411 10.238 24.487 12.7M23.7699 4.6957C29.1482 -0.761752 36.3193 2.51272 35.6022 10.517V25.7978M35.6022 25.7978C32.071 19.1475 29.6062 17.6577 24.1285 19.9766C20.9847 21.5982 19.7023 22.8143 19.8258 26.5255C19.9278 33.9363 22.9148 36.9158 32.0166 40.7149M35.6022 25.7978C38.5799 20.5828 40.2263 19.1455 43.1318 18.8851C49.1624 18.6025 51.0293 20.5884 51.3785 28.3447C50.5589 32.6843 45.2421 37.4325 35.6022 42.8979C31.7638 44.8173 30.4576 46.2492 28.7897 49.083C27.267 51.317 27.402 52.687 28.7897 55.2681C34.8097 63.8858 38.5899 65.8059 46.7173 59.2702C56.4571 62.1508 58.4779 60.5886 58.9081 51.6298C62.1964 51.4843 63.9243 51.2777 64.6449 48.3553C65.2961 44.6364 65.0484 42.4379 63.9278 40.9595M39.9048 58.5426C44.5358 53.5191 44.2268 50.6471 39.5462 45.4447M53.1712 44.717C57.2719 41.8575 58.6056 39.7725 58.3375 37.5535M53.1712 44.717C51.9886 41.6021 50.805 41.3552 48.5101 41.4425M53.1712 44.717C53.8347 46.422 53.9103 47.378 53.1712 49.083M56.0396 32.7106C57.2817 34.5589 58.1601 36.0856 58.3375 37.5535M58.3375 37.5535C58.4691 37.9356 58.5784 38.0952 58.9081 38.1681C61.2552 38.9043 62.9345 39.6489 63.9278 40.9595M63.9278 40.9595C70.3818 35.9851 70.3818 27.9808 63.9278 25.0702C66.9495 18.6054 63.2107 12.7 60.3423 14.1553L59.3861 14.8829M56.0396 17.4298C56.94 19.4008 57.05 20.4587 55.6811 22.1595M56.0396 17.4298C54.5654 15.0453 53.7051 14.4157 52.0956 14.8829M56.0396 17.4298L59.3861 14.8829M59.3861 14.8829C60.7008 6.15102 52.0956 1.42123 47.7929 4.6957M47.7929 4.6957C49.9752 7.92714 50.1451 9.62662 47.4344 12.3361M47.7929 4.6957C45.6416 1.78506 41.049 1.19267 38.112 4.6957" stroke="#0F172A" stroke-width="3.41949"/>
</svg>
