<svg width="26" height="26" viewBox="0 0 26 26" fill="none" xmlns="http://www.w3.org/2000/svg">
<path d="M12.6965 2.07239C11.2267 3.54211 10.4011 5.53548 10.4011 7.61398C10.4011 9.69248 11.2267 11.6858 12.6965 13.1556C14.1662 14.6253 16.1596 15.451 18.2381 15.451C20.3166 15.451 22.3099 14.6253 23.7796 13.1556C23.7796 15.3476 23.1296 17.4904 21.9118 19.3131C20.694 21.1357 18.963 22.5562 16.9378 23.3951C14.9126 24.234 12.6842 24.4534 10.5342 24.0258C8.38432 23.5981 6.40948 22.5426 4.85947 20.9926C3.30946 19.4425 2.25389 17.4677 1.82625 15.3178C1.3986 13.1679 1.61808 10.9394 2.45694 8.91422C3.2958 6.88903 4.71636 5.15808 6.53898 3.94024C8.3616 2.72241 10.5044 2.07239 12.6965 2.07239Z" stroke="#1E3A89" stroke-width="2.46293" stroke-linecap="round" stroke-linejoin="round"/>
</svg>
