<svg width="24" height="24" viewBox="0 0 24 24" fill="none" xmlns="http://www.w3.org/2000/svg">
<path d="M8.16559 17.8573C8.65727 16.205 11 15 12 15C13 15 15.3427 16.205 15.8344 17.8573M8.16559 17.8573C9.26697 18.5798 10.5844 19 12 19C13.4156 19 14.733 18.5798 15.8344 17.8573M8.16559 17.8573C6.25908 16.6067 5 14.4504 5 12C5 8.13401 8.13401 5 12 5C13.7135 5 15.2832 5.61568 16.5 6.63789M15.8344 17.8573C17.7409 16.6067 19 14.4504 19 12C19 10.9264 18.7583 9.90926 18.3264 9M14 10C14 11.3807 13.1046 13 12 13C10.8954 13 10 11.3807 10 10C10 8.61929 10.8954 8 12 8C13.1046 8 14 8.61929 14 10Z" stroke="#F7F9FB" stroke-width="1.5" stroke-linecap="round"/>
</svg>
