<svg width="30" height="30" viewBox="0 0 30 30" fill="none" xmlns="http://www.w3.org/2000/svg">
<path d="M10.207 22.3217C10.8216 20.2562 13.75 18.75 15 18.75C16.25 18.75 19.1784 20.2562 19.793 22.3217M10.207 22.3217C11.5837 23.2248 13.2305 23.75 15 23.75C16.7695 23.75 18.4163 23.2248 19.793 22.3217M10.207 22.3217C7.82385 20.7584 6.25 18.063 6.25 15C6.25 10.1675 10.1675 6.25 15 6.25C17.1419 6.25 19.104 7.0196 20.625 8.29736M19.793 22.3217C22.1762 20.7584 23.75 18.063 23.75 15C23.75 13.658 23.4479 12.3866 22.908 11.25M17.5 12.5C17.5 14.2259 16.3807 16.25 15 16.25C13.6193 16.25 12.5 14.2259 12.5 12.5C12.5 10.7741 13.6193 10 15 10C16.3807 10 17.5 10.7741 17.5 12.5Z" stroke="#0F172A" stroke-width="1.875" stroke-linecap="round"/>
</svg>
