<svg width="27" height="27" viewBox="0 0 27 27" fill="none" xmlns="http://www.w3.org/2000/svg">
<path d="M11.6964 19.1875C12.2362 19.2849 12.7844 19.3337 13.3338 19.3333C17.2443 19.3333 22.4658 14.5 21.9667 13.5C21.4677 12.5 20.5741 11.7606 19.9707 11.0002M15.1869 11.7325C14.6955 11.2636 14.0291 11.0002 13.3342 11.0002C12.6393 11.0002 11.9729 11.2636 11.4815 11.7325C10.9902 12.2014 10.7141 12.8373 10.7141 13.5004C10.7141 14.1635 10.9902 14.7995 11.4815 15.2683M15.1869 11.7325L11.4815 15.2683M15.1869 11.7325L11.4824 15.2667M11.4815 15.2683L8.60754 18.01M15.1851 11.7333L18.0582 8.99167M18.0582 8.99167L21.1933 6M18.0582 8.99167C16.6502 8.12464 15.0095 7.6645 13.3338 7.66667C9.42319 7.66667 6.11344 10.1192 5 13.5C5.61475 15.3587 6.89121 16.9538 8.60842 18.0092M18.0582 8.99167L8.60842 18.0092M8.60842 18.0092L5.47419 21" stroke="#0F172A" stroke-width="1.65" stroke-linecap="round"/>
</svg>
