<svg width="27" height="27" viewBox="0 0 27 27" fill="none" xmlns="http://www.w3.org/2000/svg">
<path d="M17.6082 9.36372C16.4053 8.67896 15.041 8.19116 13.5951 8.19116C10.2163 8.19116 7.28315 10.8549 5.81445 12.471C5.18205 13.1669 5.18205 14.1931 5.81445 14.889C7.28315 16.5051 10.2163 19.1688 13.5951 19.1688C16.9739 19.1688 19.9071 16.5051 21.3758 14.889C22.0082 14.1931 22.0072 13.1657 21.3747 12.4699C20.9603 12.0139 20.4295 11.4748 19.805 10.9356M15.7906 13.68C15.7906 14.8926 14.8077 15.8755 13.5951 15.8755C12.3826 15.8755 11.3996 14.8926 11.3996 13.68C11.3996 12.4674 12.3826 11.4845 13.5951 11.4845C14.8077 11.4845 15.7906 12.4674 15.7906 13.68Z" stroke="#0F172A" stroke-width="1.64665" stroke-linecap="round" stroke-linejoin="round"/>
</svg>
