<svg width="27" height="27" viewBox="0 0 27 27" fill="none" xmlns="http://www.w3.org/2000/svg">
<path d="M17.6082 9.03071C16.4053 8.34595 15.041 7.85815 13.5951 7.85815C10.2163 7.85815 7.28315 10.5218 5.81445 12.138C5.18205 12.8339 5.18205 13.8601 5.81445 14.556C7.28315 16.1721 10.2163 18.8358 13.5951 18.8358C16.9739 18.8358 19.9071 16.1721 21.3758 14.556C22.0082 13.8601 22.0072 12.8327 21.3747 12.1369C20.9603 11.6809 20.4295 11.1417 19.805 10.6026M15.7906 13.347C15.7906 14.5595 14.8077 15.5425 13.5951 15.5425C12.3826 15.5425 11.3996 14.5595 11.3996 13.347C11.3996 12.1344 12.3826 11.1515 13.5951 11.1515C14.8077 11.1515 15.7906 12.1344 15.7906 13.347Z" stroke="#F7F9FB" stroke-width="1.64665" stroke-linecap="round" stroke-linejoin="round"/>
</svg>
