<svg width="43" height="44" viewBox="0 0 43 44" fill="none" xmlns="http://www.w3.org/2000/svg">
<g clip-path="url(#clip0_3828_2194)">
<path d="M17.7168 25.4024L21.5 21.5843M21.5 21.5843L25.2832 17.7662M21.5 21.5843L17.6819 17.8011M21.5 21.5843L25.3181 25.3675M10.0457 10.2347C11.5361 8.73048 13.3082 7.53456 15.2609 6.71523C17.2135 5.8959 19.3084 5.46919 21.4259 5.45946C23.5435 5.44974 25.6422 5.85719 27.6023 6.65855C29.5624 7.45991 31.3454 8.6395 32.8496 10.1299C34.3538 11.6204 35.5497 13.3925 36.3691 15.3452C37.1884 17.2978 37.6151 19.3927 37.6248 21.5102C37.6346 23.6278 37.2271 25.7265 36.4257 27.6866C35.6244 29.6467 34.4448 31.4297 32.9543 32.9339C29.9442 35.9718 25.8506 37.6895 21.5741 37.7091C17.2975 37.7288 13.1883 36.0487 10.1504 33.0386C7.11251 30.0285 5.39482 25.9349 5.37517 21.6583C5.35553 17.3818 7.03556 13.2726 10.0457 10.2347Z" stroke="#2563EA" stroke-width="3.58333" stroke-linecap="round" stroke-linejoin="round"/>
<path d="M17.7168 25.4024L21.5 21.5843M21.5 21.5843L25.2832 17.7662M21.5 21.5843L17.6819 17.8011M21.5 21.5843L25.3181 25.3675M10.0457 10.2347C11.5361 8.73048 13.3082 7.53456 15.2609 6.71523C17.2135 5.8959 19.3084 5.46919 21.4259 5.45946C23.5435 5.44974 25.6422 5.85719 27.6023 6.65855C29.5624 7.45991 31.3454 8.6395 32.8496 10.1299C34.3538 11.6204 35.5497 13.3925 36.3691 15.3452C37.1884 17.2978 37.6151 19.3927 37.6248 21.5102C37.6346 23.6278 37.2271 25.7265 36.4257 27.6866C35.6244 29.6467 34.4448 31.4297 32.9543 32.9339C29.9442 35.9718 25.8506 37.6895 21.5741 37.7091C17.2975 37.7288 13.1883 36.0487 10.1504 33.0386C7.11251 30.0285 5.39482 25.9349 5.37517 21.6583C5.35553 17.3818 7.03556 13.2726 10.0457 10.2347Z" stroke="black" stroke-opacity="0.2" stroke-width="3.58333" stroke-linecap="round" stroke-linejoin="round"/>
</g>
<defs>
<clipPath id="clip0_3828_2194">
<rect width="43" height="43" fill="white" transform="translate(0 0.0842896)"/>
</clipPath>
</defs>
</svg>
