<svg width="19" height="20" viewBox="0 0 19 20" fill="none" xmlns="http://www.w3.org/2000/svg">
<path d="M1.91948 2.37548C1.57961 2.71535 1.38867 3.17631 1.38867 3.65696V4.56311C1.38867 12.0697 7.47437 18.1553 14.9809 18.1553H15.8871C16.3677 18.1553 16.8287 17.9644 17.1685 17.6245C17.5084 17.2847 17.6994 16.8237 17.6994 16.343V13.3718C17.6994 13.1815 17.6396 12.9961 17.5283 12.8417C17.4171 12.6874 17.2601 12.572 17.0795 12.5119L13.0082 11.1544C12.8013 11.0857 12.5765 11.0938 12.3751 11.1774C12.1737 11.2609 12.0092 11.4143 11.9118 11.6093L10.8878 13.6545C8.66909 12.652 6.892 10.8749 5.88951 8.65619L7.93469 7.63224C8.12974 7.53479 8.28311 7.37027 8.36667 7.16887C8.45022 6.96748 8.45836 6.74271 8.38958 6.5358L7.03217 2.46447C6.97209 2.28411 6.85682 2.12721 6.70265 2.01597C6.54849 1.90474 6.36324 1.84481 6.17314 1.84467H3.20097C2.72032 1.84467 2.25935 2.0356 1.91948 2.37548Z" stroke="#F7F9FB" stroke-width="2" stroke-linecap="round" stroke-linejoin="round"/>
</svg>
