<svg width="19" height="20" viewBox="0 0 19 20" fill="none" xmlns="http://www.w3.org/2000/svg">
<path d="M1.91948 2.37541C1.57961 2.71529 1.38867 3.17625 1.38867 3.6569V4.56305C1.38867 12.0696 7.47437 18.1553 14.9809 18.1553H15.8871C16.3677 18.1553 16.8287 17.9643 17.1685 17.6245C17.5084 17.2846 17.6994 16.8236 17.6994 16.343V13.3717C17.6994 13.1815 17.6396 12.996 17.5283 12.8417C17.4171 12.6873 17.2601 12.5719 17.0795 12.5118L13.0082 11.1544C12.8013 11.0856 12.5765 11.0937 12.3751 11.1773C12.1737 11.2608 12.0092 11.4142 11.9118 11.6093L10.8878 13.6544C8.66909 12.652 6.892 10.8749 5.88951 8.65613L7.93469 7.63218C8.12974 7.53473 8.28311 7.37021 8.36667 7.16881C8.45022 6.96742 8.45836 6.74265 8.38958 6.53574L7.03217 2.46441C6.97209 2.28405 6.85682 2.12715 6.70265 2.01591C6.54849 1.90468 6.36324 1.84475 6.17314 1.8446H3.20097C2.72032 1.8446 2.25935 2.03554 1.91948 2.37541Z" stroke="#0F172A" stroke-width="2" stroke-linecap="round" stroke-linejoin="round"/>
</svg>
