<svg width="28" height="29" viewBox="0 0 28 29" fill="none" xmlns="http://www.w3.org/2000/svg">
<path d="M19.8334 16.8335V2.8335" stroke="#DB2626" stroke-width="2.33333" stroke-linecap="round" stroke-linejoin="round"/>
<path d="M10.4999 21.6402L11.6666 16.8335H4.86495C4.50271 16.8335 4.14545 16.7492 3.82145 16.5872C3.49746 16.4252 3.21563 16.19 2.99828 15.9002C2.78094 15.6104 2.63405 15.274 2.56925 14.9176C2.50445 14.5612 2.52352 14.1946 2.62495 13.8468L5.34328 4.5135C5.48464 4.02883 5.77939 3.60308 6.18328 3.30016C6.58717 2.99724 7.07842 2.8335 7.58328 2.8335H23.3333C23.9521 2.8335 24.5456 3.07933 24.9832 3.51691C25.4208 3.9545 25.6666 4.54799 25.6666 5.16683V14.5002C25.6666 15.119 25.4208 15.7125 24.9832 16.1501C24.5456 16.5877 23.9521 16.8335 23.3333 16.8335H20.1133C19.6792 16.8337 19.2538 16.955 18.8848 17.1838C18.5159 17.4126 18.2181 17.7397 18.0249 18.1285L13.9999 26.1668C13.4498 26.16 12.9083 26.029 12.4158 25.7835C11.9234 25.538 11.4929 25.1844 11.1563 24.7491C10.8198 24.3138 10.5859 23.8081 10.4723 23.2698C10.3586 22.7314 10.3681 22.1743 10.4999 21.6402Z" stroke="#DB2626" stroke-width="2.33333" stroke-linecap="round" stroke-linejoin="round"/>
</svg>
