<svg width="28" height="29" viewBox="0 0 28 29" fill="none" xmlns="http://www.w3.org/2000/svg">
<path d="M8.16663 12.1665V26.1665" stroke="#22C45E" stroke-width="2.33333" stroke-linecap="round" stroke-linejoin="round"/>
<path d="M17.5 7.36016L16.3334 12.1668H23.135C23.4973 12.1668 23.8545 12.2512 24.1785 12.4132C24.5025 12.5752 24.7844 12.8104 25.0017 13.1002C25.2191 13.39 25.3659 13.7264 25.4307 14.0828C25.4955 14.4392 25.4765 14.8057 25.375 15.1535L22.6567 24.4868C22.5153 24.9715 22.2206 25.3972 21.8167 25.7002C21.4128 26.0031 20.9216 26.1668 20.4167 26.1668H4.66671C4.04787 26.1668 3.45438 25.921 3.01679 25.4834C2.57921 25.0458 2.33337 24.4523 2.33337 23.8335V14.5002C2.33337 13.8813 2.57921 13.2878 3.01679 12.8502C3.45438 12.4127 4.04787 12.1668 4.66671 12.1668H7.88671C8.32081 12.1666 8.74623 12.0453 9.11516 11.8165C9.48408 11.5877 9.78187 11.2606 9.97504 10.8718L14 2.8335C14.5502 2.84031 15.0917 2.97136 15.5841 3.21686C16.0766 3.46236 16.5071 3.81595 16.8437 4.25123C17.1802 4.68651 17.4141 5.19222 17.5277 5.73056C17.6414 6.26891 17.6319 6.82599 17.5 7.36016Z" stroke="#22C45E" stroke-width="2.33333" stroke-linecap="round" stroke-linejoin="round"/>
</svg>
