<svg width="27" height="28" viewBox="0 0 27 28" fill="none" xmlns="http://www.w3.org/2000/svg">
<path d="M9.13706 20.2764C9.67681 18.4624 12.2486 17.1397 13.3463 17.1397C14.4441 17.1397 17.0159 18.4624 17.5556 20.2764M9.13706 20.2764C10.3461 21.0695 11.7924 21.5307 13.3463 21.5307C14.9003 21.5307 16.3466 21.0695 17.5556 20.2764M9.13706 20.2764C7.04416 18.9035 5.66199 16.5364 5.66199 13.8464C5.66199 9.60242 9.10239 6.16202 13.3463 6.16202C15.2274 6.16202 16.9506 6.83789 18.2863 7.96003M17.5556 20.2764C19.6485 18.9035 21.0307 16.5364 21.0307 13.8464C21.0307 12.6678 20.7654 11.5512 20.2912 10.5531M15.5419 11.6508C15.5419 13.1665 14.5589 14.9441 13.3463 14.9441C12.1338 14.9441 11.1508 13.1665 11.1508 11.6508C11.1508 10.1351 12.1338 9.45532 13.3463 9.45532C14.5589 9.45532 15.5419 10.1351 15.5419 11.6508Z" stroke="#0F172A" stroke-width="1.64665" stroke-linecap="round"/>
</svg>
