<svg width="28" height="27" viewBox="0 0 28 27" fill="none" xmlns="http://www.w3.org/2000/svg">
<path d="M9.63718 19.7764C10.1769 17.9625 12.7487 16.6397 13.8465 16.6397C14.9442 16.6397 17.516 17.9625 18.0558 19.7764M9.63718 19.7764C10.8462 20.5695 12.2925 21.0308 13.8465 21.0308C15.4005 21.0308 16.8467 20.5695 18.0558 19.7764M9.63718 19.7764C7.54429 18.4035 6.16211 16.0364 6.16211 13.3464C6.16211 9.10245 9.60252 5.66205 13.8465 5.66205C15.7275 5.66205 17.4507 6.33792 18.7864 7.46006M18.0558 19.7764C20.1487 18.4035 21.5308 16.0364 21.5308 13.3464C21.5308 12.1679 21.2655 11.0513 20.7913 10.0531M16.042 11.1509C16.042 12.6666 15.059 14.4442 13.8465 14.4442C12.6339 14.4442 11.6509 12.6666 11.6509 11.1509C11.6509 9.63518 12.6339 8.95535 13.8465 8.95535C15.059 8.95535 16.042 9.63518 16.042 11.1509Z" stroke="#F7F9FB" stroke-width="1.64665" stroke-linecap="round"/>
</svg>
