<svg width="33" height="32" viewBox="0 0 33 32" fill="none" xmlns="http://www.w3.org/2000/svg">
<path d="M16.7352 31.4895H16.666C8.00603 31.4895 0.960449 24.4419 0.960449 15.7794V15.7101C0.960449 7.04765 8.00603 0 16.666 0H16.7352C25.3951 0 32.4407 7.04765 32.4407 15.7101V15.7794C32.4407 24.4419 25.3951 31.4895 16.7352 31.4895ZM16.666 1.06589C8.59317 1.06589 2.02602 7.63495 2.02602 15.7101V15.7794C2.02602 23.8546 8.59317 30.4237 16.666 30.4237H16.7352C24.808 30.4237 31.3752 23.8546 31.3752 15.7794V15.7101C31.3752 7.63495 24.808 1.06589 16.7352 1.06589H16.666Z" fill="#F0F4F8"/>
<path d="M7.66186 7.42041L14.6755 16.8002L7.61816 24.4267H9.20694L15.3862 17.75L20.3784 24.4267H25.7841L18.3762 14.5192L24.9455 7.42041H23.3567L17.6665 13.5695L13.0686 7.42041H7.66291H7.66186ZM9.99759 8.59078H12.4804L23.4462 23.2563H20.9634L9.99759 8.59078Z" fill="#F0F4F8"/>
</svg>
